<?xml version="1.0" standalone="no"?><!DOCTYPE svg PUBLIC "-//W3C//DTD SVG 1.1//EN" "http://www.w3.org/Graphics/SVG/1.1/DTD/svg11.dtd"><svg t="1580121292240" class="icon" viewBox="0 0 1024 1024" version="1.1" xmlns="http://www.w3.org/2000/svg" p-id="2726" xmlns:xlink="http://www.w3.org/1999/xlink" width="200" height="200"><defs><style type="text/css"></style></defs><path d="M459.7 788.1L268 614.5c-20.4-18.4-21.9-50.2-3.5-70.5 18.4-20.4 50.2-21.9 70.5-3.5l191.8 173.6c20.4 18.4 21.9 50.2 3.5 70.5-18.5 20.3-50.2 21.9-70.6 3.5z" fill="#57C0ED" p-id="2727"></path><path d="M842 492.1L528.5 788.2c-20 18.9-51.7 17.9-70.6-2-18.9-20-17.9-51.7 2-70.6l313.6-296.2c20-18.9 51.7-17.9 70.6 2 18.8 20.1 17.9 51.8-2.1 70.7z" fill="#57C0ED" p-id="2728"></path><path d="M931.8 131.8H164.5c-17.1 0-30.9 13.8-30.9 30.9V930c0 17.1 13.8 30.9 30.9 30.9h767.4c17.1 0 30.9-13.8 30.9-30.9V162.7c-0.1-17.1-13.9-30.9-31-30.9z m-64.7 709.7c0 13.1-10.6 23.8-23.8 23.8H253c-13.1 0-23.8-10.6-23.8-23.8V251.2c0-13.1 10.6-23.8 23.8-23.8h590.3c13.1 0 23.8 10.6 23.8 23.8v590.3z" fill="#0C9EEF" p-id="2729"></path></svg>