<?xml version="1.0" standalone="no"?><!DOCTYPE svg PUBLIC "-//W3C//DTD SVG 1.1//EN" "http://www.w3.org/Graphics/SVG/1.1/DTD/svg11.dtd"><svg t="1580121284338" class="icon" viewBox="0 0 1024 1024" version="1.1" xmlns="http://www.w3.org/2000/svg" p-id="2603" xmlns:xlink="http://www.w3.org/1999/xlink" width="200" height="200"><defs><style type="text/css"></style></defs><path d="M915.6 88H148.3c-17.1 0-30.9 13.8-30.9 30.9v767.4c0 17.1 13.8 30.9 30.9 30.9h767.4c17.1 0 30.9-13.8 30.9-30.9V118.9c0-17.1-13.9-30.9-31-30.9z m-64.7 709.7c0 13.1-10.6 23.8-23.8 23.8H236.8c-13.1 0-23.8-10.6-23.8-23.8V207.4c0-13.1 10.6-23.8 23.8-23.8h590.3c13.1 0 23.8 10.6 23.8 23.8v590.3z" fill="#0C9EEF" p-id="2604"></path></svg>